<svg xmlns="http://www.w3.org/2000/svg" width="512" height="512" viewBox="0 0 512 512" version="1.1">
	<path d="M 235.500 8.618 C 172.374 15.189, 120.296 39.989, 77.988 83.626 C 41.337 121.428, 18.539 167.707, 10.314 221 C 7.825 237.124, 7.825 274.876, 10.314 291 C 18.539 344.293, 41.337 390.572, 77.988 428.374 C 116.806 468.412, 164.642 492.926, 221 501.665 C 235.260 503.876, 273.758 504.185, 287.500 502.198 C 345.391 493.830, 394.522 469.165, 433.552 428.876 C 481.336 379.552, 505.967 316.022, 503.676 248 C 503.352 238.375, 502.371 225.775, 501.495 220 C 493.138 164.895, 468.004 116.274, 427.821 77.483 C 390.065 41.034, 344.472 18.542, 292 10.478 C 281.914 8.928, 244.389 7.693, 235.500 8.618 M 363.255 162.569 C 345.290 166.506, 321.207 180.885, 295.806 202.839 C 283.288 213.659, 259.017 238.413, 245.722 253.920 C 237.088 263.991, 222.404 282.828, 219.935 287 C 219.229 288.193, 217.985 287.273, 213.854 282.500 C 193.672 259.183, 157.188 229.282, 144.874 225.966 C 136.352 223.671, 126.873 227.259, 121.588 234.779 C 117.615 240.432, 116.821 249.547, 119.730 256.122 C 121.909 261.048, 123.833 262.786, 139.500 273.981 C 160.714 289.140, 174.625 303.130, 193.709 328.500 C 206.962 346.119, 207.647 346.870, 212.500 349.110 C 223.905 354.374, 238.235 348.110, 242.497 335.996 C 248.701 318.365, 279.634 278.904, 310.819 248.839 C 333.305 227.159, 348.816 216.057, 370.327 206.247 C 387.375 198.472, 389.232 197.219, 391.914 191.677 C 396.890 181.398, 392.467 166.182, 383.400 162.394 C 379.308 160.684, 371.550 160.752, 363.255 162.569" stroke="none" fill="black" fill-rule="evenodd"/>
</svg>